<svg id='Business_Lucky_Cat_48' width='48' height='48' viewBox='0 0 48 48' xmlns='http://www.w3.org/2000/svg' xmlns:xlink='http://www.w3.org/1999/xlink'><rect width='48' height='48' stroke='none' fill='#000000' opacity='0'/>


<g transform="matrix(1.83 0 0 1.83 24 24)" >
<g style="" >
<g transform="matrix(1 0 0 1 0.01 4.46)" >
<path style="stroke: none; stroke-width: 1; stroke-dasharray: none; stroke-linecap: butt; stroke-dashoffset: 0; stroke-linejoin: miter; stroke-miterlimit: 4; fill: rgb(255,255,255); fill-rule: nonzero; opacity: 1;" transform=" translate(-12.01, -16.46)" d="M 20.085 17.031 C 20.0965 17.9408 19.9194 18.843 19.565 19.681 C 18.405 22.301 15.455 23.501 12.005 23.501 C 7.545 23.501 3.925 21.501 3.925 17.031 C 3.925 14.641 4.955 10.801 6.605 9.411 L 17.4 9.411 C 17.5532 9.54767 17.6969 9.69468 17.83 9.851 C 19.225 11.491 20.085 14.861 20.085 17.031 Z" stroke-linecap="round" />
</g>
<g transform="matrix(1 0 0 1 0.01 7.18)" >
<path style="stroke: none; stroke-width: 1; stroke-dasharray: none; stroke-linecap: butt; stroke-dashoffset: 0; stroke-linejoin: miter; stroke-miterlimit: 4; fill: rgb(227,227,227); fill-rule: nonzero; opacity: 1;" transform=" translate(-12.01, -19.18)" d="M 19.565 15.773 C 18.405 18.393 15.455 19.593 12.005 19.593 C 8.176 19.593 4.973 18.113 4.142 14.868 C 4.00648 15.5813 3.93387 16.305 3.925 17.031 C 3.925 21.501 7.545 23.501 12.005 23.501 C 15.455 23.501 18.405 22.301 19.565 19.681 C 19.9194 18.843 20.0965 17.9408 20.085 17.031 C 20.0739 16.3085 19.9993 15.5884 19.862 14.879 C 19.7859 15.1841 19.6867 15.483 19.565 15.773 Z" stroke-linecap="round" />
</g>
<g transform="matrix(1 0 0 1 -0.08 4.37)" >
<path style="stroke: rgb(25,25,25); stroke-width: 0.819672131147541; stroke-dasharray: none; stroke-linecap: round; stroke-dashoffset: 0; stroke-linejoin: round; stroke-miterlimit: 4; fill: none; fill-rule: nonzero; opacity: 1;" transform=" translate(-12.01, -16.46)" d="M 20.085 17.031 C 20.0965 17.9408 19.9194 18.843 19.565 19.681 C 18.405 22.301 15.455 23.501 12.005 23.501 C 7.545 23.501 3.925 21.501 3.925 17.031 C 3.925 14.641 4.955 10.801 6.605 9.411 L 17.4 9.411 C 17.5532 9.54767 17.6969 9.69468 17.83 9.851 C 19.225 11.491 20.085 14.861 20.085 17.031 Z" stroke-linecap="round" />
</g>
<g transform="matrix(1 0 0 1 8.07 2.79)" >
<path style="stroke: rgb(25,25,25); stroke-width: 0.819672131147541; stroke-dasharray: none; stroke-linecap: round; stroke-dashoffset: 0; stroke-linejoin: round; stroke-miterlimit: 4; fill: rgb(255,255,255); fill-rule: nonzero; opacity: 1;" transform=" translate(-20.16, -14.88)" d="M 22.505 14.421 L 22.505 17.921 C 22.5041 18.2658 22.414 18.6045 22.2436 18.9043 C 22.0732 19.204 21.8281 19.4546 21.5323 19.6317 C 21.2364 19.8088 20.8998 19.9064 20.5551 19.915 C 20.2104 19.9237 19.8693 19.8431 19.565 19.681 C 19.9194 18.843 20.0965 17.9408 20.085 17.031 C 20.085 14.861 19.225 11.491 17.825 9.851 L 17.825 9.841 C 20.645 10.831 22.505 12.511 22.505 14.421 Z" stroke-linecap="round" />
</g>
<g transform="matrix(1 0 0 1 -7.94 -2.42)" >
<path style="stroke: none; stroke-width: 1; stroke-dasharray: none; stroke-linecap: butt; stroke-dashoffset: 0; stroke-linejoin: miter; stroke-miterlimit: 4; fill: rgb(255,255,255); fill-rule: nonzero; opacity: 1;" transform=" translate(-4.06, -9.58)" d="M 6.609 9.407 C 5.439 10.387 4.579 12.607 4.179 14.667 C 2.519 13.687 1.509 12.407 1.509 10.997 L 1.509 6.5 C 1.509 5.96957 1.71971 5.46086 2.09479 5.08579 C 2.46986 4.71071 2.97857 4.5 3.509 4.5 C 4.03943 4.5 4.54814 4.71071 4.92321 5.08579 C 5.29829 5.46086 5.509 5.96957 5.509 6.5 L 5.509 6.58 C 5.50068 6.64297 5.49734 6.7065 5.499 6.77 C 5.50866 7.76059 5.90733 8.70769 6.609 9.407 L 6.609 9.407 Z" stroke-linecap="round" />
</g>
<g transform="matrix(1 0 0 1 -8.86 0.01)" >
<path style="stroke: none; stroke-width: 1; stroke-dasharray: none; stroke-linecap: butt; stroke-dashoffset: 0; stroke-linejoin: miter; stroke-miterlimit: 4; fill: rgb(255,188,68); fill-rule: nonzero; opacity: 1;" transform=" translate(-3.14, -12.01)" d="M 4.763 12.513 C 4.5507 11.7433 4.13743 11.0439 3.56559 10.4867 C 2.99375 9.92941 2.28394 9.53435 1.509 9.342 L 1.509 11 C 1.509 12.41 2.519 13.69 4.179 14.67 C 4.32078 13.9377 4.51597 13.2168 4.763 12.513 L 4.763 12.513 Z" stroke-linecap="round" />
</g>
<g transform="matrix(1 0 0 1 0 -6.5)" >
<path style="stroke: none; stroke-width: 1; stroke-dasharray: none; stroke-linecap: butt; stroke-dashoffset: 0; stroke-linejoin: miter; stroke-miterlimit: 4; fill: rgb(255,255,255); fill-rule: nonzero; opacity: 1;" transform=" translate(-12, -5.5)" d="M 17.5 4 L 17.5 1 C 17.5 0.912709 17.4772 0.826932 17.4338 0.7512 C 17.3904 0.675468 17.3279 0.612422 17.2525 0.568331 C 17.1772 0.52424 17.0916 0.500641 17.0044 0.499882 C 16.9171 0.499122 16.8311 0.521228 16.755 0.564001 L 13.4 2.454 C 12.977 2.415 12.513 2.394 12 2.394 C 11.489 2.394 11.025 2.415 10.6 2.454 C 10.6 2.454 10.459 2.582 7.26 0.616001 C 7.1843 0.569428 7.09755 0.543875 7.00869 0.541974 C 6.91983 0.540074 6.83207 0.561894 6.75445 0.605188 C 6.67683 0.648481 6.61215 0.711684 6.56707 0.788286 C 6.52199 0.864888 6.49815 0.952121 6.498 1.041 L 6.498 4 C 5.86134 4.78425 5.50888 5.76092 5.498 6.771 C 5.50118 7.28302 5.6089 7.78899 5.81456 8.2579 C 6.02022 8.72681 6.31948 9.14878 6.694 9.49793 C 7.06853 9.84708 7.51042 10.1161 7.99258 10.2884 C 8.47474 10.4607 8.98702 10.5327 9.498 10.5 L 14.498 10.5 C 15.009 10.5327 15.5213 10.4607 16.0034 10.2884 C 16.4856 10.1161 16.9275 9.84708 17.302 9.49793 C 17.6765 9.14878 17.9758 8.72681 18.1814 8.2579 C 18.3871 7.78899 18.4948 7.28302 18.498 6.771 C 18.4874 5.76121 18.1357 4.78468 17.5 4 L 17.5 4 Z" stroke-linecap="round" />
</g>
<g transform="matrix(1 0 0 1 3.06 -7.97)" >
<path style="stroke: none; stroke-width: 1; stroke-dasharray: none; stroke-linecap: butt; stroke-dashoffset: 0; stroke-linejoin: miter; stroke-miterlimit: 4; fill: rgb(255,188,68); fill-rule: nonzero; opacity: 1;" transform=" translate(-15.06, -4.03)" d="M 18.433 6.045 C 18.3014 5.29495 17.9802 4.591 17.5 4 L 17.5 1 C 17.5 0.912709 17.4772 0.826932 17.4338 0.7512 C 17.3904 0.675468 17.3279 0.612422 17.2525 0.568331 C 17.1772 0.52424 17.0916 0.500641 17.0044 0.499882 C 16.9171 0.499122 16.8311 0.521228 16.755 0.564001 L 13.4 2.454 C 12.977 2.415 12.513 2.394 12 2.394 L 11.973 2.394 C 11.6264 3.23639 11.5995 4.17636 11.8972 5.03722 C 12.1949 5.89808 12.7968 6.62056 13.5898 7.06886 C 14.3827 7.51716 15.3121 7.66041 16.2032 7.47169 C 17.0944 7.28296 17.8859 6.77526 18.429 6.044 L 18.433 6.045 Z" stroke-linecap="round" />
</g>
<g transform="matrix(1 0 0 1 2.55 -7.1)" >
<path style="stroke: rgb(25,25,25); stroke-width: 0.819672131147541; stroke-dasharray: none; stroke-linecap: round; stroke-dashoffset: 0; stroke-linejoin: round; stroke-miterlimit: 4; fill: none; fill-rule: nonzero; opacity: 1;" transform=" translate(-14.64, -4.99)" d="M 13.782 5.481 C 13.9587 5.18255 14.21 4.93519 14.5112 4.7632 C 14.8124 4.59121 15.1532 4.50051 15.5 4.5" stroke-linecap="round" />
</g>
<g transform="matrix(1 0 0 1 -2.73 -7.1)" >
<path style="stroke: rgb(25,25,25); stroke-width: 0.819672131147541; stroke-dasharray: none; stroke-linecap: round; stroke-dashoffset: 0; stroke-linejoin: round; stroke-miterlimit: 4; fill: none; fill-rule: nonzero; opacity: 1;" transform=" translate(-9.36, -4.99)" d="M 10.226 5.481 C 10.0486 5.18138 9.79604 4.93327 9.49332 4.76122 C 9.19059 4.58916 8.8482 4.49912 8.5 4.5" stroke-linecap="round" />
</g>
<g transform="matrix(1 0 0 1 -0.09 -6.59)" >
<path style="stroke: rgb(25,25,25); stroke-width: 0.819672131147541; stroke-dasharray: none; stroke-linecap: round; stroke-dashoffset: 0; stroke-linejoin: round; stroke-miterlimit: 4; fill: none; fill-rule: nonzero; opacity: 1;" transform=" translate(-12, -5.5)" d="M 17.5 4 L 17.5 1 C 17.5 0.912709 17.4772 0.826932 17.4338 0.7512 C 17.3904 0.675468 17.3279 0.612422 17.2525 0.568331 C 17.1772 0.52424 17.0916 0.500641 17.0044 0.499882 C 16.9171 0.499122 16.8311 0.521228 16.755 0.564001 L 13.4 2.454 C 12.977 2.415 12.513 2.394 12 2.394 C 11.489 2.394 11.025 2.415 10.6 2.454 C 10.6 2.454 10.459 2.582 7.26 0.616001 C 7.1843 0.569428 7.09755 0.543875 7.00869 0.541974 C 6.91983 0.540074 6.83207 0.561894 6.75445 0.605188 C 6.67683 0.648481 6.61215 0.711684 6.56707 0.788286 C 6.52199 0.864888 6.49815 0.952121 6.498 1.041 L 6.498 4 C 5.86134 4.78425 5.50888 5.76092 5.498 6.771 C 5.50118 7.28302 5.6089 7.78899 5.81456 8.2579 C 6.02022 8.72681 6.31948 9.14878 6.694 9.49793 C 7.06853 9.84708 7.51042 10.1161 7.99258 10.2884 C 8.47474 10.4607 8.98702 10.5327 9.498 10.5 L 14.498 10.5 C 15.009 10.5327 15.5213 10.4607 16.0034 10.2884 C 16.4856 10.1161 16.9275 9.84708 17.302 9.49793 C 17.6765 9.14878 17.9758 8.72681 18.1814 8.2579 C 18.3871 7.78899 18.4948 7.28302 18.498 6.771 C 18.4874 5.76121 18.1357 4.78468 17.5 4 Z" stroke-linecap="round" />
</g>
<g transform="matrix(1 0 0 1 -9.59 -4.09)" >
<path style="stroke: rgb(25,25,25); stroke-width: 0.819672131147541; stroke-dasharray: none; stroke-linecap: round; stroke-dashoffset: 0; stroke-linejoin: round; stroke-miterlimit: 4; fill: none; fill-rule: nonzero; opacity: 1;" transform=" translate(-2.5, -8)" d="M 1.5 8 L 3.5 8" stroke-linecap="round" />
</g>
<g transform="matrix(1 0 0 1 -8.03 -2.51)" >
<path style="stroke: rgb(25,25,25); stroke-width: 0.819672131147541; stroke-dasharray: none; stroke-linecap: round; stroke-dashoffset: 0; stroke-linejoin: round; stroke-miterlimit: 4; fill: none; fill-rule: nonzero; opacity: 1;" transform=" translate(-4.06, -9.58)" d="M 6.609 9.407 C 5.439 10.387 4.579 12.607 4.179 14.667 C 2.519 13.687 1.509 12.407 1.509 10.997 L 1.509 6.5 C 1.509 5.96957 1.71971 5.46086 2.09479 5.08579 C 2.46986 4.71071 2.97857 4.5 3.509 4.5 C 4.03943 4.5 4.54814 4.71071 4.92321 5.08579 C 5.29829 5.46086 5.509 5.96957 5.509 6.5 L 5.509 6.58 C 5.50068 6.64297 5.49734 6.7065 5.499 6.77 C 5.50866 7.76059 5.90733 8.70769 6.609 9.407 L 6.609 9.407 Z" stroke-linecap="round" />
</g>
<g transform="matrix(1 0 0 1 -3.09 0.23)" >
<path style="stroke: rgb(25,25,25); stroke-width: 0.819672131147541; stroke-dasharray: none; stroke-linecap: round; stroke-dashoffset: 0; stroke-linejoin: round; stroke-miterlimit: 4; fill: none; fill-rule: nonzero; opacity: 1;" transform=" translate(-9, -12.32)" d="M 11 14.9 C 9.87064 14.6695 8.8556 14.0558 8.12669 13.1629 C 7.39778 12.27 6.99976 11.1527 7 10 C 7 9.914 7 9.829 7.006 9.744" stroke-linecap="round" />
</g>
<g transform="matrix(1 0 0 1 2.92 0.24)" >
<path style="stroke: rgb(25,25,25); stroke-width: 0.819672131147541; stroke-dasharray: none; stroke-linecap: round; stroke-dashoffset: 0; stroke-linejoin: round; stroke-miterlimit: 4; fill: none; fill-rule: nonzero; opacity: 1;" transform=" translate(-15.01, -12.33)" d="M 16.991 9.752 C 16.991 9.838 17.004 9.913 17.004 9.999 C 17.005 11.1494 16.6093 12.265 15.8835 13.1576 C 15.1578 14.0502 14.1464 14.6652 13.02 14.899" stroke-linecap="round" />
</g>
<g transform="matrix(1 0 0 1 -0.09 3.91)" >
<path style="stroke: rgb(25,25,25); stroke-width: 0.819672131147541; stroke-dasharray: none; stroke-linecap: round; stroke-dashoffset: 0; stroke-linejoin: round; stroke-miterlimit: 4; fill: rgb(255,239,94); fill-rule: nonzero; opacity: 1;" transform=" translate(-12, -16)" d="M 12 17.5 C 12.2967 17.5 12.5867 17.412 12.8334 17.2472 C 13.08 17.0824 13.2723 16.8481 13.3858 16.574 C 13.4994 16.2999 13.5291 15.9983 13.4712 15.7074 C 13.4133 15.4164 13.2704 15.1491 13.0607 14.9393 C 12.8509 14.7296 12.5836 14.5867 12.2926 14.5288 C 12.0017 14.4709 11.7001 14.5006 11.426 14.6142 C 11.1519 14.7277 10.9176 14.92 10.7528 15.1666 C 10.588 15.4133 10.5 15.7033 10.5 16 C 10.5 16.3978 10.658 16.7794 10.9393 17.0607 C 11.2206 17.342 11.6022 17.5 12 17.5 Z" stroke-linecap="round" />
</g>
</g>
</g>
</svg>